<?xml version="1.0" encoding="utf-8"?><!-- Uploaded to: SVG Repo, www.svgrepo.com, Generator: SVG Repo Mixer Tools -->
<svg width="800px" height="800px" viewBox="0 0 48 48" xmlns="http://www.w3.org/2000/svg"><defs><style>.a{fill:none;stroke:#000000;stroke-linecap:round;stroke-linejoin:round;}</style></defs><path class="a" d="M5.5,19.6V40.5a2,2,0,0,0,2,2h33a2,2,0,0,0,2-2V7.5a2,2,0,0,0-2-2H7.5a2,2,0,0,0-2,2V19.6"/><path class="a" d="M20.56,30.4V17.6h2.88a5.6,5.6,0,0,1,5.6,5.6v1.6a5.6,5.6,0,0,1-5.6,5.6Z"/><line class="a" x1="31.62" y1="17.6" x2="31.62" y2="30.4"/><polyline class="a" points="38.5 30.4 33.23 24 38.5 17.643"/><line class="a" x1="33.2297" y1="24" x2="31.62" y2="24"/><path class="a" d="M9.7535,28.9976A3.58,3.58,0,0,0,12.8919,30.4h1.895A3.1966,3.1966,0,0,0,17.98,27.2h0A3.1966,3.1966,0,0,0,14.7869,24H12.6931A3.1966,3.1966,0,0,1,9.5,20.8h0a3.1966,3.1966,0,0,1,3.1931-3.2h1.895a3.5806,3.5806,0,0,1,3.1385,1.4024"/></svg>