<svg viewBox="0 0 256 256" xmlns="http://www.w3.org/2000/svg" role="img" aria-label="gnaw">
  <defs>
    <linearGradient id="ember" x1="0" y1="0" x2="1" y2="1">
      <stop offset="0" stop-color="#FF9A4D"/><stop offset="0.55" stop-color="#FF6B2C"/><stop offset="1" stop-color="#E23C0A"/>
    </linearGradient>
    <clipPath id="headd"><path d="M120 128 L189.4 97.1 A76 76 0 1 0 189.4 158.9 Z"/></clipPath>
  </defs>
  <rect x="10" y="10" width="236" height="236" rx="58" fill="#16100C"/>
  <rect x="10" y="10" width="236" height="236" rx="58" fill="none" stroke="#34261C" stroke-width="2"/>
  <g clip-path="url(#headd)">
    <path d="M120 128 L189.4 97.1 A76 76 0 1 0 189.4 158.9 Z" fill="url(#ember)"/>
    <path d="M122 56 L148 140" fill="none" stroke="#16100C" stroke-width="32" stroke-linecap="round"/>
  </g>
  <circle cx="135" cy="97" r="8.5" fill="#FFF3E3"/>
  <path d="M151.8 113.9 L164.6 108.2 L163.1 122 Z" fill="url(#ember)"/>
  <path d="M172.6 104.6 L185.4 98.9 L183.9 112.7 Z" fill="url(#ember)"/>
  <path d="M151.8 142.1 L164.6 147.8 L163.1 134 Z" fill="url(#ember)"/>
  <path d="M172.6 151.4 L185.4 157.1 L183.9 143.3 Z" fill="url(#ember)"/>
</svg>
