<?xml version="1.0" encoding="UTF-8"?>
<svg xmlns="http://www.w3.org/2000/svg" version="1.1" viewBox="0 0 841.9 595.3">
  <defs>
    <style>
      .cls-1 {
        fill: #4d6bfe;
      }
    </style>
  </defs>
  <!-- Generator: Adobe Illustrator 28.6.0, SVG Export Plug-In . SVG Version: 1.2.0 Build 709)  -->
  <g>
    <g id="katman_1">
      <g>
        <path id="path" class="cls-1" d="M286.9,236.1c-2.1-1-3,1-4.3,2-.4.3-.8.8-1.1,1.1-3.1,3.3-6.7,5.5-11.5,5.2-6.9-.4-12.8,1.8-18.1,7.1-1.1-6.6-4.8-10.5-10.4-13-2.9-1.3-5.9-2.6-8-5.4-1.4-2-1.8-4.3-2.5-6.5-.5-1.3-.9-2.7-2.5-2.9-1.7-.3-2.3,1.1-3,2.3-2.6,4.8-3.6,10.1-3.5,15.4.2,12,5.3,21.6,15.4,28.4,1.2.8,1.4,1.6,1.1,2.7-.7,2.3-1.5,4.6-2.2,7-.5,1.5-1.2,1.8-2.8,1.2-5.5-2.3-10.3-5.7-14.5-9.9-7.2-6.9-13.7-14.6-21.7-20.6-1.9-1.4-3.8-2.7-5.8-4-8.2-8,1.1-14.6,3.2-15.4,2.2-.8.8-3.6-6.5-3.6-7.3,0-14,2.5-22.5,5.7-1.3.5-2.5.8-3.9,1.1-7.7-1.5-15.7-1.8-24.1-.8-15.8,1.8-28.4,9.2-37.6,22-11.1,15.3-13.8,32.7-10.5,50.9,3.4,19.1,13.1,35,28.1,47.3,15.5,12.8,33.4,19.1,53.8,17.9,12.4-.7,26.2-2.4,41.8-15.6,3.9,2,8.1,2.7,14.9,3.3,5.3.5,10.3-.3,14.3-1.1,6.1-1.3,5.7-7,3.5-8-18-8.4-14.1-5-17.7-7.8,9.2-10.8,23-22.1,28.4-58.7.4-2.9,0-4.7,0-7.1,0-1.4.3-2,1.9-2.1,4.5-.5,8.9-1.8,12.9-4,11.7-6.4,16.4-16.9,17.5-29.5.2-1.9,0-3.9-2.1-4.9ZM185.1,349.3c-17.5-13.8-25.9-18.3-29.5-18.1-3.3.2-2.7,3.9-2,6.4.7,2.4,1.7,4.1,3.1,6.2.9,1.4,1.6,3.5-.9,5-5.6,3.5-15.4-1.2-15.9-1.4-11.4-6.7-20.9-15.6-27.6-27.7-6.5-11.7-10.2-24.2-10.9-37.5-.2-3.2.8-4.4,4-5,4.2-.8,8.6-1,12.8-.3,17.8,2.6,33,10.6,45.7,23.2,7.3,7.2,12.8,15.8,18.4,24.2,6,8.9,12.5,17.4,20.7,24.4,2.9,2.4,5.2,4.3,7.5,5.7-6.7.8-17.9.9-25.6-5.1ZM193.5,295.4c0-1.5,1.1-2.6,2.6-2.6s.6,0,.9.2c.3.1.7.3.9.6.5.5.7,1.1.7,1.8,0,1.4-1.1,2.6-2.6,2.6s-2.5-1.1-2.5-2.6ZM219.5,308.7c-1.7.7-3.3,1.3-4.9,1.3-2.5.1-5.2-.9-6.7-2.1-2.3-1.9-3.9-3-4.6-6.4-.3-1.4-.1-3.6.1-4.9.6-2.7,0-4.5-2-6.1-1.6-1.3-3.6-1.7-5.8-1.7s-1.6-.3-2.1-.6c-.9-.5-1.7-1.6-.9-3,.2-.5,1.3-1.6,1.6-1.7,3-1.7,6.4-1.2,9.6.1,2.9,1.2,5.2,3.4,8.4,6.6,3.3,3.8,3.9,4.8,5.7,7.7,1.5,2.2,2.8,4.5,3.7,7.1.6,1.6-.2,3-2.1,3.8Z"/>
        <path id="path-2" data-name="path" class="cls-1" d="M489.6,343.7h-6.8v-10.5h6.8c4.2,0,8.4-1,11.2-4,2.8-2.9,3.8-7.4,3.8-11.9s-1-8.9-3.8-11.8c-2.8-2.9-7-4-11.2-4s-8.4,1-11.2,4c-2.8,2.9-3.8,7.4-3.8,11.8v43.3h-11.9v-69.6h11.9v4.4h2.2c.2-.2.5-.5.7-.7,3-2.7,7.5-3.7,12-3.7,7,0,14.1,1.7,18.7,6.6,4.6,4.9,6.2,12.3,6.2,19.7s-1.7,14.9-6.2,19.7c-4.6,4.9-11.7,6.6-18.7,6.6Z"/>
        <path id="path-3" data-name="path" class="cls-1" d="M308.2,292.8h6.8v10.5h-6.8c-4.2,0-8.4,1-11.2,4-2.8,2.9-3.8,7.4-3.8,11.8s1,8.9,3.8,11.8c2.8,2.9,7,4,11.2,4s8.4-1.1,11.2-4c2.8-2.9,3.8-7.4,3.8-11.8v-43.2h11.9v69.6h-11.9v-4.4h-2.2c-.2.3-.5.5-.7.7-3,2.7-7.5,3.7-12,3.7-7,0-14.1-1.7-18.7-6.6-4.6-4.9-6.2-12.3-6.2-19.7s1.7-14.9,6.2-19.7c4.6-4.9,11.7-6.6,18.7-6.6Z"/>
        <path id="path-4" data-name="path" class="cls-1" d="M394.9,318.3v4.2h-31.7v-8.4h21c-.5-3.1-1.6-5.9-3.6-8-2.9-3-7.3-4.1-11.7-4.1s-8.8,1.1-11.6,4.1c-2.9,3-3.9,7.6-3.9,12.2s1,9.2,3.9,12.3c2.9,3,7.3,4.1,11.6,4.1s8.8-1.1,11.7-4.1c.4-.4.8-.9,1.1-1.4h11.8c-1,3.7-2.7,7-5.1,9.5-4.8,5-12.1,6.8-19.4,6.8s-14.6-1.8-19.4-6.8c-4.8-5-6.5-12.8-6.5-20.4s1.7-15.4,6.5-20.4c4.8-5,12.1-6.8,19.4-6.8s14.6,1.8,19.4,6.8c4.8,5,6.5,12.8,6.5,20.4Z"/>
        <path id="path-5" data-name="path" class="cls-1" d="M454.7,318.3v4.2h-31.7v-8.4h21.1c-.5-3.1-1.6-5.9-3.6-8-2.9-3-7.3-4.1-11.6-4.1s-8.8,1.1-11.6,4.1c-2.9,3-3.9,7.6-3.9,12.2s1,9.2,3.9,12.3,7.3,4.1,11.6,4.1,8.8-1.1,11.6-4.1c.4-.4.8-.9,1.1-1.4h11.8c-1,3.7-2.7,7-5.1,9.5-4.8,5-12.1,6.8-19.4,6.8s-14.6-1.8-19.4-6.8c-4.8-5-6.5-12.8-6.5-20.4s1.7-15.4,6.5-20.4c4.8-5,12.1-6.8,19.4-6.8s14.6,1.8,19.4,6.8c4.8,5,6.5,12.8,6.5,20.4Z"/>
        <path id="path-6" data-name="path" class="cls-1" d="M548.4,345.5c7.3,0,14.6-1.1,19.4-4,4.8-3,6.5-7.5,6.5-12s-1.7-9.1-6.5-12c-4.8-3-12.1-4-19.4-4h.2c-3.1,0-6.2-.4-8.3-1.6-2-1.1-2.8-2.9-2.8-4.7s.7-3.5,2.8-4.7c2-1.1,5.2-1.6,8.3-1.6s6.2.4,8.3,1.6c2,1.2,2.8,2.9,2.8,4.7h12.1c0-4.5-1.6-9.1-5.9-12-4.3-3-11-4-17.6-4s-13.2,1.1-17.6,4c-4.3,3-5.9,7.5-5.9,12s1.6,9.1,5.9,12c4.3,3,11,4,17.6,4s7.2.4,9.4,1.6c2.3,1.1,3.1,2.9,3.1,4.7s-.8,3.5-3.1,4.7-5.7,1.6-9.2,1.6-6.9-.4-9.1-1.6c-2.3-1.1-3.1-2.9-3.1-4.7h-14c0,4.5,1.7,9.1,6.5,12,4.8,3,12.1,4,19.4,4Z"/>
        <path id="path-7" data-name="path" class="cls-1" d="M634.1,318.3v4.2h-31.7v-8.4h21.1c-.5-3.1-1.6-5.9-3.6-8-2.9-3-7.3-4.1-11.6-4.1s-8.8,1.1-11.6,4.1c-2.9,3-3.9,7.6-3.9,12.2s1,9.2,3.9,12.3c2.9,3,7.3,4.1,11.6,4.1s8.8-1.1,11.6-4.1c.4-.4.8-.9,1.1-1.4h11.8c-1,3.7-2.7,7-5.1,9.5-4.8,5-12.1,6.8-19.4,6.8s-14.6-1.8-19.4-6.8c-4.8-5-6.5-12.8-6.5-20.4s1.7-15.4,6.5-20.4c4.8-5,12.1-6.8,19.4-6.8s14.6,1.8,19.4,6.8c4.8,5,6.5,12.8,6.5,20.4Z"/>
        <path id="path-8" data-name="path" class="cls-1" d="M693.9,318.3v4.2h-31.7v-8.4h21.1c-.5-3.1-1.6-5.9-3.6-8-2.9-3-7.3-4.1-11.6-4.1s-8.8,1.1-11.6,4.1c-2.9,3-3.9,7.6-3.9,12.2s1,9.2,3.9,12.3c2.9,3,7.3,4.1,11.6,4.1s8.8-1.1,11.6-4.1c.4-.4.8-.9,1.1-1.4h11.8c-1,3.7-2.7,7-5.2,9.5-4.8,5-12.1,6.8-19.4,6.8s-14.6-1.8-19.4-6.8c-4.8-5-6.5-12.8-6.5-20.4s1.7-15.4,6.5-20.4c4.8-5,12.1-6.8,19.4-6.8s14.6,1.8,19.4,6.8c4.8,5,6.5,12.8,6.5,20.4Z"/>
        <rect id="rect" class="cls-1" x="701.9" y="273.5" width="11.9" height="72"/>
        <path id="polygon" class="cls-1" d="M734.1,316.6l19.5,28.9h-14.8l-19.5-28.9,19.5-23.2h14.8l-19.5,23.2Z"/>
      </g>
    </g>
  </g>
</svg>