<?xml version="1.0" encoding="UTF-8"?>
<svg id="katman_1" data-name="katman 1" xmlns="http://www.w3.org/2000/svg" version="1.1" xmlns:xlink="http://www.w3.org/1999/xlink" viewBox="0 0 841.89 595.28">
  <defs>
    <style>
      .cls-1 {
        fill: #000;
      }

      .cls-1, .cls-2 {
        stroke-width: 0px;
      }

      .cls-2 {
        fill: none;
      }

      .cls-3 {
        clip-path: url(#clippath);
      }
    </style>
    <clipPath id="clippath">
      <rect class="cls-2" x="59.41" y="165.38" width="723.66" height="264.57"/>
    </clipPath>
  </defs>
  <g class="cls-3">
    <path class="cls-1" d="M492.8,165.81c-50,0-90.62,40.54-90.62,90.62s40.54,90.62,90.62,90.62,90.62-40.54,90.62-90.62c-.09-50-40.62-90.53-90.62-90.62ZM492.8,313.02c-31.25,0-56.59-25.35-56.59-56.59s25.35-56.59,56.59-56.59,56.59,25.35,56.59,56.59-25.35,56.59-56.59,56.59ZM367.72,166.16c-3.12-.35-6.16-.52-9.29-.52-1.56,0-3.04,0-4.51.09s-3.04.17-4.51.26c-6.08.43-12.15,1.48-18.05,3.12-12.07,3.21-23.44,8.94-33.24,16.67-10.07,7.99-18.05,18.23-23.52,29.86-2.69,5.82-4.69,11.98-5.99,18.23-.61,3.12-1.04,6.25-1.39,9.37-.09,1.56-.26,3.12-.26,4.69l-.09,2.34v2.17l.17,60.67.17,30.29h33.94l.17-30.29.17-60.67v-3.21c0-.95.17-1.91.17-2.86.17-1.91.52-3.73.87-5.64.78-3.65,1.91-7.2,3.47-10.59,3.12-6.77,7.81-12.67,13.63-17.36,6.08-4.86,13.11-8.42,20.57-10.42,3.82-1.04,7.81-1.74,11.8-2.08,1.04-.09,2-.17,3.04-.17s2.08-.09,3.04-.09c1.91,0,3.91.09,5.82.26,7.73.78,15.19,3.12,22.05,6.94l16.93-29.43c-10.76-6.25-22.74-10.24-35.15-11.63ZM150.81,165.38c-50-.43-90.97,39.75-91.4,89.75-.43,50,39.75,90.97,89.75,91.4h31.42v-33.94h-29.77c-31.25.35-56.94-24.65-57.29-55.99-.35-31.34,24.65-56.94,55.99-57.29h1.3c31.25,0,56.59,25.35,56.77,56.59v83.42c0,30.99-25.26,56.25-56.16,56.59-14.84-.09-28.99-6.08-39.41-16.58l-24.04,24.04c16.67,16.75,39.23,26.3,62.84,26.47h1.22c49.39-.69,89.06-40.8,89.32-90.19v-86.02c-1.22-49.04-41.4-88.19-90.53-88.28ZM692.79,165.81c-50,0-90.62,40.54-90.53,90.62,0,50,40.54,90.53,90.53,90.53h30.99v-33.94h-30.99c-31.25,0-56.59-25.35-56.59-56.59s25.35-56.59,56.59-56.59c29.34,0,53.82,22.48,56.42,51.73h-.09v173.95h33.94v-169.09c0-50-40.36-90.62-90.27-90.62Z"/>
  </g>
</svg>