<?xml version="1.0" encoding="UTF-8"?>
<svg id="katman_1" xmlns="http://www.w3.org/2000/svg" version="1.1" viewBox="0 0 841.9 595.3">
  <!-- Generator: Adobe Illustrator 29.2.1, SVG Export Plug-In . SVG Version: 2.1.0 Build 116)  -->
  <defs>
    <style>
      .st0 {
        fill: #fa500f;
      }

      .st1 {
        fill: #e10500;
      }

      .st2 {
        fill: #ff8205;
      }

      .st3 {
        fill: #ffd800;
      }

      .st4 {
        fill: #ffaf00;
      }
    </style>
  </defs>
  <g>
    <path d="M132.2,239.3h-25v24.8h25v-24.8Z"/>
    <path d="M232.3,239.3h-25v24.8h25v-24.8Z"/>
    <path d="M157.2,264.1h-50v24.8h50v-24.8Z"/>
    <path d="M232.3,264.1h-50v24.8h50v-24.8Z"/>
    <path d="M232.3,288.8h-125.1v24.8h125.1v-24.8Z"/>
    <path d="M132.2,313.6h-25v24.8h25v-24.8Z"/>
    <path d="M182.2,313.6h-25v24.8h25v-24.8Z"/>
    <path d="M232.3,313.6h-25v24.8h25v-24.8Z"/>
    <path d="M157.2,338.4h-75.1v24.8h75.1v-24.8Z"/>
    <path d="M257.3,338.4h-75.1v24.8h75.1v-24.8Z"/>
    <path class="st3" d="M132.2,239.3h-25v24.8h25v-24.8Z"/>
    <path class="st3" d="M232.3,239.3h-25v24.8h25v-24.8Z"/>
    <path class="st4" d="M157.2,264.1h-50v24.8h50v-24.8Z"/>
    <path class="st4" d="M232.3,264.1h-50v24.8h50v-24.8Z"/>
    <path class="st2" d="M232.3,288.8h-125.1v24.8h125.1v-24.8Z"/>
    <path class="st0" d="M132.2,313.6h-25v24.8h25v-24.8Z"/>
    <path class="st0" d="M182.2,313.6h-25v24.8h25v-24.8Z"/>
    <path class="st0" d="M232.3,313.6h-25v24.8h25v-24.8Z"/>
    <path class="st1" d="M157.2,338.4h-75.1v24.8h75.1v-24.8Z"/>
    <path class="st1" d="M257.3,338.4h-75.1v24.8h75.1v-24.8Z"/>
  </g>
  <g>
    <path d="M304.4,336.1v-74.5h22.5l13.5,50.8,13.4-50.8h22.6v74.5h-14v-58.6l-14.8,58.6h-14.5l-14.7-58.6v58.6h-14Z"/>
    <path d="M391.2,274.9v-13.2h14.3v13.2h-14.3ZM391.2,336.1v-54h14.3v54h-14.3Z"/>
    <path d="M415.1,320.7l14.3-2.2c.6,2.8,1.8,4.9,3.7,6.3,1.9,1.4,4.5,2.2,7.8,2.2s6.5-.7,8.3-2c1.3-.9,1.9-2.2,1.9-3.8s-.3-2-1-2.7c-.7-.7-2.3-1.3-4.8-1.9-11.5-2.5-18.8-4.9-21.9-7-4.3-2.9-6.4-7-6.4-12.1s1.8-8.6,5.5-11.8c3.7-3.2,9.4-4.8,17.2-4.8s12.9,1.2,16.5,3.6c3.6,2.4,6.1,6,7.4,10.7l-13.5,2.5c-.6-2.1-1.7-3.7-3.3-4.8s-3.9-1.7-6.9-1.7-6.5.5-8.1,1.6c-1.1.7-1.6,1.7-1.6,2.9s.5,1.9,1.4,2.6c1.3.9,5.7,2.3,13.3,4,7.6,1.7,12.9,3.8,15.9,6.4,3,2.5,4.5,6.1,4.5,10.6s-2.1,9.2-6.2,12.8c-4.1,3.6-10.2,5.3-18.3,5.3s-13.2-1.5-17.5-4.5c-4.3-3-7.1-7-8.4-12.1Z"/>
    <path d="M502.7,282.2v11.4h-9.8v21.8c0,4.4,0,7,.3,7.7.2.7.6,1.3,1.3,1.8.7.5,1.5.7,2.4.7s3.2-.5,5.7-1.4l1.2,11.1c-3.3,1.4-7.1,2.1-11.3,2.1s-4.9-.4-7-1.3-3.6-2-4.5-3.4-1.6-3.2-2-5.6c-.3-1.7-.5-5-.5-10.1v-23.5h-6.6v-11.4h6.6v-10.7l14.3-8.3v19.1h9.8Z"/>
    <path d="M526.3,336.1h-14.3v-54h13.3v7.7c2.3-3.6,4.3-6,6.1-7.2,1.8-1.2,3.9-1.7,6.2-1.7s6.4.9,9.4,2.7l-4.4,12.5c-2.4-1.6-4.6-2.3-6.7-2.3s-3.7.6-5.1,1.7c-1.4,1.1-2.5,3.1-3.3,6-.8,2.9-1.2,8.9-1.2,18.1v16.7Z"/>
    <path d="M563.8,298.6l-13-2.3c1.5-5.2,4-9.1,7.5-11.6,3.6-2.5,8.8-3.8,15.9-3.8s11.1.8,14.2,2.3c3.1,1.5,5.3,3.4,6.6,5.7,1.3,2.3,1.9,6.6,1.9,12.8l-.2,16.7c0,4.7.2,8.2.7,10.5.5,2.3,1.3,4.7,2.6,7.2h-14.1c-.4-.9-.8-2.4-1.4-4.2-.2-.8-.4-1.4-.5-1.7-2.4,2.4-5,4.2-7.8,5.3s-5.7,1.8-8.9,1.8c-5.6,0-9.9-1.5-13.1-4.5-3.2-3-4.8-6.8-4.8-11.4s.7-5.8,2.2-8.2c1.5-2.4,3.5-4.2,6.1-5.5,2.6-1.3,6.4-2.4,11.4-3.3,6.7-1.3,11.3-2.4,13.9-3.5v-1.4c0-2.7-.7-4.7-2-5.9-1.4-1.2-3.9-1.8-7.7-1.8s-4.5.5-5.9,1.5c-1.4,1-2.6,2.8-3.5,5.3ZM582.9,310.2c-1.8.6-4.7,1.3-8.7,2.2-4,.8-6.6,1.7-7.8,2.5-1.9,1.3-2.8,3-2.8,5s.7,3.7,2.2,5.2c1.5,1.5,3.4,2.2,5.7,2.2s5-.8,7.4-2.5c1.7-1.3,2.9-2.9,3.4-4.7.4-1.2.6-3.5.6-7v-2.8Z"/>
    <path d="M611,336.1v-74.5h14.3v74.5h-14.3Z"/>
    <path d="M732.3,336.1h-16.4l-6.5-16.9h-29.8l-6.1,16.9h-16l29-74.5h15.9l29.8,74.5ZM704.6,306.7l-10.3-27.6-10.1,27.6h20.3Z"/>
    <path d="M739.8,336.1v-74.5h15v74.5h-15Z"/>
  </g>
</svg>