<?xml version="1.0" encoding="UTF-8"?>
<svg id="katman_1" xmlns="http://www.w3.org/2000/svg" version="1.1" viewBox="0 0 841.9 595.3">
  <!-- Generator: Adobe Illustrator 29.1.0, SVG Export Plug-In . SVG Version: 2.1.0 Build 142)  -->
  <defs>
    <style>
      .st0, .st1 {
        fill-rule: evenodd;
      }

      .st1 {
        fill: #615ced;
      }
    </style>
  </defs>
  <path class="st0" d="M703.3,344.2l5.4-41.2c.1-.8.2-1.5.2-2.3,0-.9,0-2.1,0-3.7,0-4.7-1.1-8.3-3.4-10.7-2.3-2.5-5.6-3.8-9.9-3.8-6.8,0-12.1,2.2-15.9,6.6-3.8,4.3-6.3,11-7.5,20l-4.5,35.2h-16.3l9.5-71.7h15.7l-1.2,8.6c4.1-3.8,8.4-6.6,12.8-8.4,4.5-1.8,9.3-2.8,14.1-2.7,7.4,0,13.1,1.9,17.2,5.8,4.1,3.8,6.2,9.2,6.2,16.2s-.1,3.8-.3,6.2c-.2,2.3-.5,5-.9,8.2l-5,37.8h-16.3,0ZM621.8,322.1l11.7,9.2c-4.2,5.5-8.7,9.5-13.6,12-4.9,2.5-10.5,3.8-16.9,3.8-10.6,0-19.2-3.2-25.8-9.6-6.6-6.5-9.8-14.9-9.8-25.4s3.8-22.4,11.3-30.3c7.6-7.9,17.2-11.9,28.8-11.9s17.5,3,23.2,9.1c5.8,6,8.7,14.1,8.7,24.2s0,2-.2,3.3c0,1.3-.2,2.9-.3,4.8h-54.7c0,6.5,1.6,11.7,4.9,15.6,3.3,3.8,7.6,5.7,13.1,5.7s7.4-.9,10.7-2.7c3.5-1.9,6.4-4.5,8.8-7.8h0ZM585.7,299.7h37c-.1-4.8-1.7-8.7-4.5-11.4-2.8-2.8-6.6-4.2-11.4-4.2s-10.1,1.4-13.8,4.2c-3.8,2.8-6.2,6.6-7.2,11.4ZM446.9,272.4h16.4l11.6,36.6.3.9c1.4,4.5,2.2,7.8,2.3,10,.6-1.7,1.3-3.5,2.1-5.5.9-2,2-4.1,3.3-6.3l24.1-41.1,11.7,42.3c.5,1.6.8,3.2,1.1,4.8.3,1.7.6,3.6.8,5.7.8-2.1,1.5-4,2.3-5.7.8-1.7,1.6-3.2,2.3-4.5l21.7-37.4h18.5l-48.6,76.2-12.1-40.1c-.5-1.5-.9-3-1.2-4.5-.3-1.8-.6-3.7-.8-5.5-1,2-2,4-3,6-.9,1.7-1.5,2.9-2,3.6l-24.4,40.5-26.5-76.2h0ZM414.2,356l-12.1-14c-4.3,1.7-8.4,2.9-12.4,3.7-3.9.8-7.8,1.3-11.8,1.3-16.9,0-30.3-4.8-40.2-14.5-9.9-9.7-14.9-22.8-14.9-39.3s1.6-17.4,4.8-25.2c3.1-7.8,7.7-14.6,13.7-20.4,5.7-5.5,12.3-9.7,19.7-12.6,7.5-2.9,15.5-4.3,24-4.3,16.6,0,29.9,4.9,39.9,14.7,10,9.8,15,22.8,15,39.1s-2,19.3-6,27.9c-4,8.6-9.7,15.7-17.2,21.5l18.5,22h-20.7ZM376.4,311.2h20.7l8.7,10.2c5.4-4.4,9.5-9.8,12.3-16.1,3-6.4,4.4-13.2,4.4-20.3,0-11.6-3.6-20.9-10.7-27.9-7.1-7.1-16.4-10.7-28.1-10.7s-11.3,1.1-16.4,3.2c-5.2,2.1-9.7,5.2-13.6,9.2-4.4,4.5-7.8,9.7-10.2,15.6-2.4,5.8-3.6,11.9-3.6,18.2,0,11.4,3.5,20.7,10.4,28,7,7.3,15.8,10.9,26.6,10.9s4.5-.2,6.9-.5c2.4-.4,4.9-.9,7.6-1.7l-15.1-18.1Z"/>
  <path class="st1" d="M233.8,279.6c.4,0,.5.2.3.5l-6.8,11.9-21.2,37.3c0,.2-.2.2-.4.2-.2,0-.3,0-.4-.2l-28.1-49c-.2-.3,0-.4.2-.4h1.8c0,0,54.7-.2,54.7-.2h0ZM182.7,214.4c-.2,0-.3,0-.4.2l-23.3,40.8c-.2.4-.6.6-1.1.6h-23.3c-.5,0-.6.2-.3.6l47.2,82.6c.2.3.1.5-.3.5h-22.7c-.7,0-1.3.4-1.6,1.1l-10.7,18.8c-.4.6-.2,1,.6,1h46.5c.4,0,.7.2.8.6l11.4,20c.4.7.7.7,1.1,0l40.7-71.2,6.4-11.2c0-.2.2-.2.4-.2s.3,0,.4.2l11.6,20.6c.2.3.5.5.9.5l22.5-.2c.1,0,.2,0,.3-.2,0-.1,0-.2,0-.3l-23.6-41.4c-.2-.3-.2-.6,0-.9l2.4-4.1,9.1-16.1c.2-.3,0-.5-.3-.5h-94.3c-.5,0-.6-.2-.3-.6l11.7-20.4c.2-.3.2-.6,0-.9l-11.1-19.5c0-.2-.2-.3-.4-.3h0ZM210.6,211.2c3.2,5.6,6.4,11.2,9.5,16.9.3.5.7.7,1.3.7h45.1c1.4,0,2.6.9,3.6,2.7l11.8,20.9c1.5,2.7,2,3.9.2,6.8-2.1,3.5-4.2,7-6.2,10.6l-3,5.4c-.9,1.6-1.8,2.3-.3,4.2l21.6,37.7c1.4,2.4.9,4-.3,6.3-3.6,6.4-7.2,12.7-10.9,19-1.3,2.2-2.9,3-5.5,3-6.3-.1-12.6,0-18.9.1-.3,0-.5.2-.7.4-7.3,12.9-14.6,25.7-22,38.5-1.4,2.4-3.1,3-5.9,3-8.1,0-16.3,0-24.5,0-1.7,0-2.9-.7-3.8-2.2l-10.9-18.9c-.1-.3-.4-.4-.7-.4h-41.6c-2.3.2-4.5,0-6.5-.7l-13-22.5c-.8-1.5-.8-2.9,0-4.4l9.8-17.2c.3-.5.3-1.1,0-1.6-5.1-8.9-10.2-17.7-15.2-26.6l-6.4-11.3c-1.3-2.5-1.4-4,.8-7.8,3.8-6.6,7.5-13.2,11.3-19.8,1.1-1.9,2.5-2.7,4.7-2.7,7,0,14,0,21.1,0,.4,0,.7-.2.9-.5l22.8-39.8c.8-1.3,1.9-2,3.4-2,4.3,0,8.6,0,12.9,0l8.3-.2c2.8,0,5.9.3,7.3,2.8Z"/>
</svg>